<svg xmlns="http://www.w3.org/2000/svg" xmlns:xlink="http://www.w3.org/1999/xlink" width="512" zoomAndPan="magnify" viewBox="0 0 384 383.999986" height="512" preserveAspectRatio="xMidYMid meet" version="1.0"><defs><clipPath id="id1"><path d="M 45.335938 45.335938 L 351.335938 45.335938 L 351.335938 351.335938 L 45.335938 351.335938 Z M 45.335938 45.335938 " clip-rule="nonzero"/></clipPath></defs><rect x="-38.4" width="460.8" fill="#ffffff" y="-38.399999" height="460.799983" fill-opacity="1"/><rect x="-38.4" width="460.8" fill="#041f60" y="-38.399999" height="460.799983" fill-opacity="1"/><rect x="-38.4" width="460.8" fill="#ffffff" y="-38.399999" height="460.799983" fill-opacity="1"/><rect x="-38.4" width="460.8" fill="#041f60" y="-38.399999" height="460.799983" fill-opacity="1"/><path fill="#000000" d="M 271.777344 118.777344 L 124.894531 118.777344 C 124.496094 118.777344 124.097656 118.816406 123.703125 118.898438 C 123.308594 118.976562 122.925781 119.09375 122.558594 119.246094 C 122.1875 119.402344 121.832031 119.589844 121.5 119.8125 C 121.167969 120.035156 120.859375 120.289062 120.574219 120.574219 C 120.289062 120.859375 120.035156 121.167969 119.8125 121.5 C 119.589844 121.832031 119.402344 122.1875 119.246094 122.558594 C 119.09375 122.925781 118.976562 123.308594 118.898438 123.703125 C 118.816406 124.097656 118.777344 124.496094 118.777344 124.894531 L 118.777344 140.503906 L 277.894531 140.503906 L 277.894531 124.894531 C 277.894531 124.496094 277.855469 124.097656 277.777344 123.703125 C 277.695312 123.308594 277.578125 122.925781 277.425781 122.558594 C 277.269531 122.1875 277.082031 121.832031 276.859375 121.5 C 276.636719 121.167969 276.382812 120.859375 276.097656 120.574219 C 275.816406 120.289062 275.503906 120.035156 275.171875 119.8125 C 274.839844 119.589844 274.484375 119.402344 274.117188 119.246094 C 273.746094 119.09375 273.363281 118.976562 272.96875 118.898438 C 272.574219 118.816406 272.175781 118.777344 271.777344 118.777344 Z M 135.300781 137.851562 C 134.898438 137.847656 134.5 137.808594 134.105469 137.730469 C 133.714844 137.648438 133.332031 137.535156 132.960938 137.378906 C 132.589844 137.226562 132.238281 137.035156 131.902344 136.8125 C 131.570312 136.589844 131.261719 136.335938 130.976562 136.050781 C 130.695312 135.769531 130.441406 135.460938 130.21875 135.125 C 129.992188 134.792969 129.804688 134.441406 129.652344 134.070312 C 129.496094 133.699219 129.378906 133.316406 129.300781 132.921875 C 129.222656 132.527344 129.179688 132.132812 129.179688 131.730469 C 129.1875 131.332031 129.230469 130.941406 129.316406 130.550781 C 129.398438 130.164062 129.519531 129.785156 129.675781 129.421875 C 129.832031 129.054688 130.023438 128.707031 130.246094 128.378906 C 130.472656 128.050781 130.726562 127.75 131.007812 127.472656 C 131.292969 127.191406 131.601562 126.945312 131.933594 126.726562 C 132.265625 126.507812 132.613281 126.320312 132.980469 126.171875 C 133.351562 126.019531 133.730469 125.90625 134.117188 125.832031 C 134.507812 125.753906 134.902344 125.714844 135.300781 125.714844 C 135.699219 125.714844 136.089844 125.753906 136.480469 125.832031 C 136.871094 125.90625 137.25 126.019531 137.617188 126.171875 C 137.984375 126.320312 138.335938 126.507812 138.667969 126.726562 C 139 126.945312 139.308594 127.191406 139.589844 127.472656 C 139.875 127.75 140.128906 128.050781 140.351562 128.378906 C 140.578125 128.707031 140.765625 129.054688 140.925781 129.421875 C 141.082031 129.785156 141.203125 130.164062 141.285156 130.550781 C 141.367188 130.941406 141.414062 131.332031 141.421875 131.730469 C 141.417969 132.132812 141.378906 132.527344 141.300781 132.921875 C 141.21875 133.316406 141.105469 133.699219 140.949219 134.070312 C 140.796875 134.441406 140.605469 134.792969 140.382812 135.125 C 140.160156 135.460938 139.90625 135.769531 139.621094 136.050781 C 139.339844 136.335938 139.03125 136.589844 138.695312 136.8125 C 138.363281 137.035156 138.011719 137.226562 137.640625 137.378906 C 137.269531 137.535156 136.886719 137.648438 136.492188 137.730469 C 136.097656 137.808594 135.703125 137.847656 135.300781 137.851562 Z M 156.414062 137.851562 C 156.011719 137.847656 155.613281 137.808594 155.222656 137.730469 C 154.828125 137.648438 154.445312 137.535156 154.074219 137.378906 C 153.703125 137.226562 153.351562 137.035156 153.019531 136.8125 C 152.683594 136.589844 152.375 136.335938 152.09375 136.050781 C 151.808594 135.769531 151.554688 135.460938 151.332031 135.125 C 151.109375 134.792969 150.917969 134.441406 150.765625 134.070312 C 150.609375 133.699219 150.492188 133.316406 150.414062 132.921875 C 150.335938 132.527344 150.296875 132.132812 150.292969 131.730469 C 150.300781 131.332031 150.34375 130.9375 150.425781 130.546875 C 150.507812 130.160156 150.628906 129.78125 150.785156 129.414062 C 150.941406 129.046875 151.132812 128.699219 151.355469 128.371094 C 151.578125 128.042969 151.832031 127.738281 152.117188 127.457031 C 152.402344 127.179688 152.707031 126.929688 153.039062 126.710938 C 153.371094 126.488281 153.722656 126.304688 154.09375 126.152344 C 154.460938 126.003906 154.839844 125.886719 155.230469 125.8125 C 155.621094 125.734375 156.015625 125.695312 156.414062 125.695312 C 156.8125 125.695312 157.207031 125.734375 157.597656 125.8125 C 157.988281 125.886719 158.367188 126.003906 158.738281 126.152344 C 159.105469 126.304688 159.457031 126.488281 159.789062 126.710938 C 160.121094 126.929688 160.425781 127.179688 160.710938 127.457031 C 160.996094 127.738281 161.25 128.042969 161.472656 128.371094 C 161.695312 128.699219 161.886719 129.046875 162.042969 129.414062 C 162.199219 129.78125 162.320312 130.160156 162.402344 130.546875 C 162.484375 130.9375 162.527344 131.332031 162.535156 131.730469 C 162.53125 132.132812 162.492188 132.527344 162.414062 132.921875 C 162.335938 133.316406 162.21875 133.699219 162.0625 134.070312 C 161.910156 134.441406 161.71875 134.792969 161.496094 135.125 C 161.273438 135.460938 161.019531 135.769531 160.738281 136.050781 C 160.453125 136.335938 160.144531 136.589844 159.808594 136.8125 C 159.476562 137.035156 159.125 137.226562 158.753906 137.378906 C 158.382812 137.535156 158 137.648438 157.605469 137.730469 C 157.214844 137.808594 156.816406 137.847656 156.414062 137.851562 Z M 177.527344 137.851562 C 177.125 137.847656 176.730469 137.808594 176.335938 137.730469 C 175.941406 137.648438 175.558594 137.535156 175.1875 137.378906 C 174.816406 137.226562 174.464844 137.035156 174.132812 136.8125 C 173.796875 136.589844 173.488281 136.335938 173.207031 136.050781 C 172.921875 135.769531 172.667969 135.460938 172.445312 135.125 C 172.222656 134.792969 172.03125 134.441406 171.878906 134.070312 C 171.726562 133.699219 171.609375 133.316406 171.527344 132.921875 C 171.449219 132.527344 171.410156 132.132812 171.40625 131.730469 C 171.414062 131.332031 171.460938 130.941406 171.542969 130.550781 C 171.628906 130.164062 171.746094 129.785156 171.902344 129.421875 C 172.0625 129.054688 172.25 128.707031 172.476562 128.378906 C 172.699219 128.050781 172.953125 127.75 173.238281 127.472656 C 173.519531 127.191406 173.828125 126.945312 174.160156 126.726562 C 174.492188 126.507812 174.84375 126.320312 175.210938 126.171875 C 175.578125 126.019531 175.957031 125.90625 176.347656 125.832031 C 176.738281 125.753906 177.128906 125.714844 177.527344 125.714844 C 177.925781 125.714844 178.320312 125.753906 178.710938 125.832031 C 179.097656 125.90625 179.476562 126.019531 179.847656 126.171875 C 180.214844 126.320312 180.5625 126.507812 180.894531 126.726562 C 181.226562 126.945312 181.535156 127.191406 181.820312 127.472656 C 182.101562 127.75 182.355469 128.050781 182.582031 128.378906 C 182.804688 128.707031 182.996094 129.054688 183.152344 129.421875 C 183.308594 129.785156 183.429688 130.164062 183.511719 130.550781 C 183.597656 130.941406 183.640625 131.332031 183.648438 131.730469 C 183.648438 132.132812 183.605469 132.527344 183.527344 132.921875 C 183.449219 133.316406 183.332031 133.699219 183.175781 134.070312 C 183.023438 134.441406 182.835938 134.792969 182.609375 135.125 C 182.386719 135.460938 182.132812 135.769531 181.851562 136.050781 C 181.566406 136.335938 181.257812 136.589844 180.925781 136.8125 C 180.589844 137.035156 180.238281 137.226562 179.867188 137.378906 C 179.496094 137.535156 179.113281 137.648438 178.722656 137.730469 C 178.328125 137.808594 177.929688 137.847656 177.527344 137.851562 Z M 177.527344 137.851562 " fill-opacity="1" fill-rule="nonzero"/><path fill="#000000" d="M 224.449219 180.484375 L 224.449219 203.335938 L 255.863281 203.335938 L 255.863281 180.484375 Z M 224.449219 180.484375 L 224.449219 203.335938 L 255.863281 203.335938 L 255.863281 180.484375 Z M 224.449219 180.484375 L 224.449219 203.335938 L 255.863281 203.335938 L 255.863281 180.484375 Z M 224.449219 180.484375 L 224.449219 203.335938 L 255.863281 203.335938 L 255.863281 180.484375 Z M 224.449219 180.484375 L 224.449219 203.335938 L 255.863281 203.335938 L 255.863281 180.484375 Z M 224.449219 180.484375 L 224.449219 203.335938 L 255.863281 203.335938 L 255.863281 180.484375 Z M 224.449219 180.484375 L 224.449219 203.335938 L 255.863281 203.335938 L 255.863281 180.484375 Z M 224.449219 180.484375 L 224.449219 203.335938 L 255.863281 203.335938 L 255.863281 180.484375 Z M 224.449219 180.484375 L 224.449219 203.335938 L 255.863281 203.335938 L 255.863281 180.484375 Z M 224.449219 180.484375 L 224.449219 203.335938 L 255.863281 203.335938 L 255.863281 180.484375 Z M 224.449219 180.484375 L 224.449219 203.335938 L 255.863281 203.335938 L 255.863281 180.484375 Z M 224.449219 180.484375 L 224.449219 203.335938 L 255.863281 203.335938 L 255.863281 180.484375 Z M 224.449219 180.484375 L 224.449219 203.335938 L 255.863281 203.335938 L 255.863281 180.484375 Z M 224.449219 180.484375 L 224.449219 203.335938 L 255.863281 203.335938 L 255.863281 180.484375 Z M 224.449219 180.484375 L 224.449219 203.335938 L 255.863281 203.335938 L 255.863281 180.484375 Z M 224.449219 180.484375 L 224.449219 203.335938 L 255.863281 203.335938 L 255.863281 180.484375 Z M 118.777344 152.742188 L 118.777344 271.777344 C 118.777344 272.175781 118.816406 272.574219 118.898438 272.96875 C 118.976562 273.363281 119.09375 273.746094 119.246094 274.117188 C 119.402344 274.484375 119.589844 274.839844 119.8125 275.171875 C 120.035156 275.503906 120.289062 275.8125 120.574219 276.097656 C 120.859375 276.382812 121.167969 276.636719 121.5 276.859375 C 121.832031 277.082031 122.1875 277.269531 122.558594 277.425781 C 122.925781 277.578125 123.308594 277.695312 123.703125 277.777344 C 124.097656 277.855469 124.496094 277.894531 124.894531 277.894531 L 271.777344 277.894531 C 272.175781 277.894531 272.574219 277.855469 272.96875 277.777344 C 273.363281 277.695312 273.746094 277.578125 274.117188 277.425781 C 274.484375 277.269531 274.839844 277.082031 275.171875 276.859375 C 275.503906 276.636719 275.816406 276.382812 276.097656 276.097656 C 276.382812 275.816406 276.636719 275.503906 276.859375 275.171875 C 277.082031 274.839844 277.269531 274.484375 277.425781 274.117188 C 277.578125 273.746094 277.695312 273.363281 277.777344 272.96875 C 277.855469 272.574219 277.894531 272.175781 277.894531 271.777344 L 277.894531 152.742188 Z M 134.6875 177.730469 L 190.277344 177.730469 C 190.679688 177.730469 191.078125 177.769531 191.472656 177.851562 C 191.867188 177.929688 192.25 178.042969 192.621094 178.199219 C 192.992188 178.351562 193.34375 178.539062 193.679688 178.761719 C 194.011719 178.988281 194.320312 179.242188 194.605469 179.523438 C 194.890625 179.808594 195.144531 180.117188 195.367188 180.453125 C 195.589844 180.785156 195.777344 181.140625 195.933594 181.511719 C 196.085938 181.882812 196.203125 182.265625 196.28125 182.65625 C 196.359375 183.050781 196.398438 183.449219 196.398438 183.851562 C 196.398438 184.253906 196.359375 184.652344 196.28125 185.046875 C 196.203125 185.441406 196.085938 185.824219 195.933594 186.195312 C 195.777344 186.566406 195.589844 186.917969 195.367188 187.253906 C 195.144531 187.585938 194.890625 187.894531 194.605469 188.179688 C 194.320312 188.464844 194.011719 188.71875 193.679688 188.941406 C 193.34375 189.164062 192.992188 189.351562 192.621094 189.507812 C 192.25 189.660156 191.867188 189.777344 191.472656 189.855469 C 191.078125 189.933594 190.679688 189.972656 190.277344 189.972656 L 134.6875 189.972656 C 134.285156 189.972656 133.886719 189.933594 133.496094 189.855469 C 133.101562 189.777344 132.71875 189.660156 132.347656 189.507812 C 131.976562 189.351562 131.621094 189.164062 131.289062 188.941406 C 130.953125 188.71875 130.644531 188.464844 130.359375 188.179688 C 130.078125 187.894531 129.824219 187.585938 129.597656 187.253906 C 129.375 186.917969 129.1875 186.566406 129.035156 186.195312 C 128.878906 185.824219 128.765625 185.441406 128.6875 185.046875 C 128.605469 184.652344 128.566406 184.253906 128.566406 183.851562 C 128.566406 183.449219 128.605469 183.050781 128.6875 182.65625 C 128.765625 182.265625 128.878906 181.882812 129.035156 181.511719 C 129.1875 181.140625 129.375 180.785156 129.597656 180.453125 C 129.824219 180.117188 130.078125 179.808594 130.359375 179.523438 C 130.644531 179.242188 130.953125 178.988281 131.289062 178.761719 C 131.621094 178.539062 131.976562 178.351562 132.347656 178.199219 C 132.71875 178.042969 133.101562 177.929688 133.496094 177.851562 C 133.886719 177.769531 134.285156 177.730469 134.6875 177.730469 Z M 134.6875 203.335938 L 190.277344 203.335938 C 190.679688 203.335938 191.078125 203.375 191.472656 203.453125 C 191.867188 203.53125 192.25 203.644531 192.621094 203.800781 C 192.992188 203.953125 193.34375 204.140625 193.679688 204.367188 C 194.011719 204.589844 194.320312 204.84375 194.605469 205.125 C 194.890625 205.410156 195.144531 205.71875 195.367188 206.054688 C 195.589844 206.386719 195.777344 206.742188 195.933594 207.113281 C 196.085938 207.484375 196.203125 207.867188 196.28125 208.261719 C 196.359375 208.652344 196.398438 209.050781 196.398438 209.453125 C 196.398438 209.855469 196.359375 210.253906 196.28125 210.648438 C 196.203125 211.042969 196.085938 211.425781 195.933594 211.796875 C 195.777344 212.167969 195.589844 212.519531 195.367188 212.855469 C 195.144531 213.1875 194.890625 213.496094 194.605469 213.78125 C 194.320312 214.066406 194.011719 214.320312 193.679688 214.542969 C 193.34375 214.765625 192.992188 214.953125 192.621094 215.109375 C 192.25 215.261719 191.867188 215.378906 191.472656 215.457031 C 191.078125 215.535156 190.679688 215.574219 190.277344 215.574219 L 134.6875 215.574219 C 134.285156 215.574219 133.886719 215.535156 133.496094 215.457031 C 133.101562 215.378906 132.71875 215.261719 132.347656 215.109375 C 131.976562 214.953125 131.621094 214.765625 131.289062 214.542969 C 130.953125 214.320312 130.644531 214.066406 130.359375 213.78125 C 130.078125 213.496094 129.824219 213.1875 129.597656 212.855469 C 129.375 212.519531 129.1875 212.167969 129.035156 211.796875 C 128.878906 211.425781 128.765625 211.042969 128.6875 210.648438 C 128.605469 210.253906 128.566406 209.855469 128.566406 209.453125 C 128.566406 209.050781 128.605469 208.652344 128.6875 208.261719 C 128.765625 207.867188 128.878906 207.484375 129.035156 207.113281 C 129.1875 206.742188 129.375 206.386719 129.597656 206.054688 C 129.824219 205.71875 130.078125 205.410156 130.359375 205.125 C 130.644531 204.84375 130.953125 204.589844 131.289062 204.367188 C 131.621094 204.140625 131.976562 203.953125 132.347656 203.800781 C 132.71875 203.644531 133.101562 203.53125 133.496094 203.453125 C 133.886719 203.375 134.285156 203.335938 134.6875 203.335938 Z M 256.984375 266.675781 L 134.6875 266.675781 C 134.285156 266.675781 133.886719 266.636719 133.496094 266.558594 C 133.101562 266.480469 132.71875 266.363281 132.347656 266.210938 C 131.976562 266.054688 131.621094 265.867188 131.289062 265.644531 C 130.953125 265.421875 130.644531 265.167969 130.359375 264.882812 C 130.078125 264.597656 129.824219 264.289062 129.597656 263.957031 C 129.375 263.621094 129.1875 263.269531 129.035156 262.898438 C 128.878906 262.527344 128.765625 262.144531 128.6875 261.75 C 128.605469 261.355469 128.566406 260.957031 128.566406 260.554688 C 128.566406 260.152344 128.605469 259.757812 128.6875 259.363281 C 128.765625 258.96875 128.878906 258.585938 129.035156 258.214844 C 129.1875 257.84375 129.375 257.488281 129.597656 257.15625 C 129.824219 256.820312 130.078125 256.511719 130.359375 256.230469 C 130.644531 255.945312 130.953125 255.691406 131.289062 255.46875 C 131.621094 255.246094 131.976562 255.054688 132.347656 254.902344 C 132.71875 254.75 133.101562 254.632812 133.496094 254.554688 C 133.886719 254.476562 134.285156 254.4375 134.6875 254.4375 L 256.984375 254.4375 C 257.386719 254.4375 257.785156 254.476562 258.179688 254.554688 C 258.574219 254.632812 258.957031 254.75 259.328125 254.902344 C 259.699219 255.054688 260.050781 255.246094 260.386719 255.46875 C 260.71875 255.691406 261.03125 255.945312 261.3125 256.230469 C 261.597656 256.511719 261.851562 256.820312 262.074219 257.15625 C 262.296875 257.488281 262.488281 257.84375 262.640625 258.214844 C 262.792969 258.585938 262.910156 258.96875 262.988281 259.363281 C 263.066406 259.757812 263.105469 260.152344 263.105469 260.554688 C 263.105469 260.957031 263.066406 261.355469 262.988281 261.75 C 262.910156 262.144531 262.792969 262.527344 262.640625 262.898438 C 262.488281 263.269531 262.296875 263.621094 262.074219 263.957031 C 261.851562 264.289062 261.597656 264.597656 261.3125 264.882812 C 261.03125 265.167969 260.71875 265.421875 260.386719 265.644531 C 260.050781 265.867188 259.699219 266.054688 259.328125 266.210938 C 258.957031 266.363281 258.574219 266.480469 258.179688 266.558594 C 257.785156 266.636719 257.386719 266.675781 256.984375 266.675781 Z M 256.984375 241.074219 L 134.6875 241.074219 C 134.285156 241.078125 133.886719 241.039062 133.492188 240.964844 C 133.09375 240.886719 132.710938 240.773438 132.339844 240.621094 C 131.964844 240.46875 131.613281 240.28125 131.277344 240.058594 C 130.941406 239.835938 130.632812 239.582031 130.347656 239.296875 C 130.0625 239.011719 129.808594 238.699219 129.585938 238.367188 C 129.363281 238.03125 129.175781 237.675781 129.019531 237.304688 C 128.867188 236.929688 128.753906 236.546875 128.679688 236.152344 C 128.601562 235.757812 128.566406 235.355469 128.566406 234.953125 C 128.570312 234.550781 128.609375 234.15625 128.6875 233.761719 C 128.769531 233.367188 128.882812 232.984375 129.039062 232.613281 C 129.191406 232.242188 129.382812 231.890625 129.605469 231.558594 C 129.828125 231.222656 130.082031 230.914062 130.367188 230.632812 C 130.648438 230.347656 130.957031 230.09375 131.292969 229.871094 C 131.625 229.648438 131.976562 229.457031 132.347656 229.304688 C 132.71875 229.152344 133.101562 229.035156 133.496094 228.953125 C 133.890625 228.875 134.285156 228.835938 134.6875 228.835938 L 256.984375 228.835938 C 257.386719 228.835938 257.785156 228.875 258.179688 228.953125 C 258.574219 229.035156 258.953125 229.152344 259.324219 229.304688 C 259.695312 229.460938 260.046875 229.648438 260.382812 229.871094 C 260.714844 230.09375 261.023438 230.347656 261.308594 230.632812 C 261.59375 230.914062 261.847656 231.226562 262.070312 231.558594 C 262.292969 231.890625 262.480469 232.246094 262.636719 232.613281 C 262.789062 232.984375 262.90625 233.367188 262.984375 233.761719 C 263.066406 234.15625 263.105469 234.550781 263.105469 234.953125 C 263.109375 235.355469 263.074219 235.757812 262.996094 236.152344 C 262.921875 236.546875 262.804688 236.929688 262.652344 237.304688 C 262.5 237.675781 262.3125 238.03125 262.089844 238.367188 C 261.867188 238.699219 261.613281 239.011719 261.328125 239.296875 C 261.042969 239.582031 260.734375 239.835938 260.398438 240.058594 C 260.0625 240.28125 259.707031 240.46875 259.335938 240.621094 C 258.960938 240.773438 258.578125 240.886719 258.183594 240.964844 C 257.789062 241.039062 257.390625 241.078125 256.984375 241.074219 Z M 268.105469 203.335938 C 268.101562 204.136719 268.019531 204.933594 267.863281 205.71875 C 267.703125 206.507812 267.472656 207.269531 267.164062 208.011719 C 266.855469 208.753906 266.476562 209.457031 266.03125 210.125 C 265.582031 210.792969 265.078125 211.410156 264.507812 211.976562 C 263.941406 212.546875 263.324219 213.054688 262.65625 213.5 C 261.988281 213.945312 261.285156 214.324219 260.542969 214.632812 C 259.800781 214.941406 259.035156 215.175781 258.25 215.332031 C 257.460938 215.492188 256.667969 215.570312 255.863281 215.574219 L 224.449219 215.574219 C 223.644531 215.570312 222.851562 215.492188 222.0625 215.332031 C 221.277344 215.175781 220.511719 214.941406 219.769531 214.632812 C 219.027344 214.324219 218.324219 213.945312 217.65625 213.5 C 216.988281 213.054688 216.371094 212.546875 215.804688 211.976562 C 215.234375 211.410156 214.730469 210.792969 214.28125 210.125 C 213.835938 209.457031 213.457031 208.753906 213.148438 208.011719 C 212.839844 207.269531 212.609375 206.507812 212.449219 205.71875 C 212.289062 204.933594 212.210938 204.136719 212.207031 203.335938 L 212.207031 180.484375 C 212.210938 179.683594 212.289062 178.886719 212.449219 178.101562 C 212.609375 177.3125 212.839844 176.550781 213.148438 175.808594 C 213.457031 175.066406 213.835938 174.363281 214.28125 173.695312 C 214.730469 173.027344 215.234375 172.410156 215.804688 171.839844 C 216.371094 171.273438 216.988281 170.765625 217.65625 170.320312 C 218.324219 169.875 219.027344 169.496094 219.769531 169.1875 C 220.511719 168.878906 221.277344 168.644531 222.0625 168.488281 C 222.851562 168.328125 223.644531 168.25 224.449219 168.246094 L 255.863281 168.246094 C 256.667969 168.25 257.460938 168.328125 258.25 168.488281 C 259.035156 168.644531 259.800781 168.878906 260.542969 169.1875 C 261.285156 169.496094 261.988281 169.875 262.65625 170.320312 C 263.324219 170.765625 263.941406 171.273438 264.507812 171.839844 C 265.078125 172.410156 265.582031 173.027344 266.03125 173.695312 C 266.476562 174.363281 266.855469 175.066406 267.164062 175.808594 C 267.472656 176.550781 267.703125 177.3125 267.863281 178.101562 C 268.019531 178.886719 268.101562 179.683594 268.105469 180.484375 Z M 224.449219 203.335938 L 255.863281 203.335938 L 255.863281 180.484375 L 224.449219 180.484375 Z M 224.449219 180.484375 L 224.449219 203.335938 L 255.863281 203.335938 L 255.863281 180.484375 Z M 224.449219 180.484375 L 224.449219 203.335938 L 255.863281 203.335938 L 255.863281 180.484375 Z M 224.449219 180.484375 L 224.449219 203.335938 L 255.863281 203.335938 L 255.863281 180.484375 Z M 224.449219 180.484375 L 224.449219 203.335938 L 255.863281 203.335938 L 255.863281 180.484375 Z M 224.449219 180.484375 L 224.449219 203.335938 L 255.863281 203.335938 L 255.863281 180.484375 Z M 224.449219 180.484375 L 224.449219 203.335938 L 255.863281 203.335938 L 255.863281 180.484375 Z M 224.449219 180.484375 L 224.449219 203.335938 L 255.863281 203.335938 L 255.863281 180.484375 Z M 224.449219 180.484375 L 224.449219 203.335938 L 255.863281 203.335938 L 255.863281 180.484375 Z M 224.449219 180.484375 L 224.449219 203.335938 L 255.863281 203.335938 L 255.863281 180.484375 Z M 224.449219 180.484375 L 224.449219 203.335938 L 255.863281 203.335938 L 255.863281 180.484375 Z M 224.449219 180.484375 L 224.449219 203.335938 L 255.863281 203.335938 L 255.863281 180.484375 Z M 224.449219 180.484375 L 224.449219 203.335938 L 255.863281 203.335938 L 255.863281 180.484375 Z M 224.449219 180.484375 L 224.449219 203.335938 L 255.863281 203.335938 L 255.863281 180.484375 Z M 224.449219 180.484375 L 224.449219 203.335938 L 255.863281 203.335938 L 255.863281 180.484375 Z M 224.449219 180.484375 " fill-opacity="1" fill-rule="nonzero"/><g clip-path="url(#id1)"><path fill="#000000" d="M 198.335938 45.335938 C 195.832031 45.335938 193.328125 45.398438 190.828125 45.519531 C 188.328125 45.644531 185.832031 45.828125 183.339844 46.074219 C 180.847656 46.316406 178.363281 46.625 175.886719 46.992188 C 173.410156 47.359375 170.941406 47.789062 168.488281 48.277344 C 166.03125 48.765625 163.589844 49.3125 161.160156 49.921875 C 158.730469 50.53125 156.320312 51.199219 153.921875 51.925781 C 151.527344 52.652344 149.148438 53.4375 146.792969 54.28125 C 144.433594 55.125 142.097656 56.023438 139.785156 56.984375 C 137.472656 57.941406 135.183594 58.957031 132.921875 60.027344 C 130.65625 61.097656 128.421875 62.222656 126.210938 63.402344 C 124.003906 64.582031 121.824219 65.816406 119.679688 67.105469 C 117.53125 68.390625 115.414062 69.730469 113.332031 71.121094 C 111.25 72.511719 109.207031 73.953125 107.195312 75.445312 C 105.183594 76.9375 103.210938 78.476562 101.273438 80.066406 C 99.339844 81.652344 97.441406 83.289062 95.585938 84.96875 C 93.730469 86.652344 91.917969 88.378906 90.148438 90.148438 C 88.378906 91.917969 86.652344 93.730469 84.96875 95.585938 C 83.289062 97.441406 81.652344 99.339844 80.066406 101.273438 C 78.476562 103.210938 76.9375 105.183594 75.445312 107.195312 C 73.953125 109.207031 72.511719 111.25 71.121094 113.332031 C 69.730469 115.414062 68.390625 117.53125 67.105469 119.679688 C 65.816406 121.824219 64.582031 124.003906 63.402344 126.210938 C 62.222656 128.421875 61.097656 130.65625 60.027344 132.921875 C 58.957031 135.183594 57.941406 137.472656 56.984375 139.785156 C 56.023438 142.097656 55.125 144.433594 54.28125 146.792969 C 53.4375 149.148438 52.652344 151.527344 51.925781 153.921875 C 51.199219 156.320312 50.53125 158.730469 49.921875 161.160156 C 49.3125 163.589844 48.765625 166.03125 48.277344 168.488281 C 47.789062 170.941406 47.359375 173.410156 46.992188 175.886719 C 46.625 178.363281 46.316406 180.847656 46.074219 183.339844 C 45.828125 185.832031 45.644531 188.328125 45.519531 190.828125 C 45.398438 193.328125 45.335938 195.832031 45.335938 198.335938 C 45.335938 200.839844 45.398438 203.34375 45.519531 205.84375 C 45.644531 208.34375 45.828125 210.839844 46.074219 213.332031 C 46.316406 215.824219 46.625 218.308594 46.992188 220.785156 C 47.359375 223.261719 47.789062 225.730469 48.277344 228.183594 C 48.765625 230.640625 49.3125 233.082031 49.921875 235.511719 C 50.53125 237.941406 51.199219 240.355469 51.925781 242.75 C 52.652344 245.144531 53.4375 247.523438 54.28125 249.878906 C 55.125 252.238281 56.023438 254.574219 56.984375 256.886719 C 57.941406 259.199219 58.957031 261.488281 60.027344 263.753906 C 61.097656 266.015625 62.222656 268.25 63.402344 270.460938 C 64.582031 272.667969 65.816406 274.847656 67.105469 276.992188 C 68.390625 279.140625 69.730469 281.257812 71.121094 283.339844 C 72.511719 285.421875 73.953125 287.46875 75.445312 289.476562 C 76.9375 291.488281 78.476562 293.460938 80.066406 295.398438 C 81.652344 297.332031 83.289062 299.230469 84.96875 301.085938 C 86.652344 302.941406 88.378906 304.753906 90.148438 306.523438 C 91.917969 308.292969 93.730469 310.019531 95.585938 311.703125 C 97.441406 313.382812 99.339844 315.019531 101.273438 316.605469 C 103.210938 318.195312 105.183594 319.734375 107.195312 321.226562 C 109.207031 322.71875 111.25 324.160156 113.332031 325.550781 C 115.414062 326.941406 117.53125 328.28125 119.679688 329.570312 C 121.824219 330.855469 124.003906 332.089844 126.210938 333.269531 C 128.421875 334.449219 130.65625 335.574219 132.921875 336.644531 C 135.183594 337.71875 137.472656 338.730469 139.785156 339.691406 C 142.097656 340.648438 144.433594 341.546875 146.792969 342.390625 C 149.148438 343.234375 151.527344 344.019531 153.921875 344.746094 C 156.320312 345.476562 158.730469 346.140625 161.160156 346.75 C 163.589844 347.359375 166.03125 347.90625 168.488281 348.394531 C 170.941406 348.882812 173.410156 349.3125 175.886719 349.679688 C 178.363281 350.046875 180.847656 350.355469 183.339844 350.597656 C 185.832031 350.84375 188.328125 351.027344 190.828125 351.152344 C 193.328125 351.273438 195.832031 351.335938 198.335938 351.335938 C 200.839844 351.335938 203.34375 351.273438 205.84375 351.152344 C 208.34375 351.027344 210.839844 350.84375 213.332031 350.597656 C 215.824219 350.355469 218.308594 350.046875 220.785156 349.679688 C 223.261719 349.3125 225.730469 348.882812 228.183594 348.394531 C 230.640625 347.90625 233.082031 347.359375 235.511719 346.75 C 237.941406 346.140625 240.355469 345.476562 242.75 344.746094 C 245.144531 344.019531 247.523438 343.234375 249.878906 342.390625 C 252.238281 341.546875 254.574219 340.648438 256.886719 339.691406 C 259.199219 338.730469 261.488281 337.71875 263.753906 336.644531 C 266.015625 335.574219 268.25 334.449219 270.460938 333.269531 C 272.667969 332.089844 274.847656 330.855469 276.992188 329.570312 C 279.140625 328.28125 281.257812 326.941406 283.339844 325.550781 C 285.421875 324.160156 287.46875 322.71875 289.476562 321.226562 C 291.488281 319.734375 293.460938 318.195312 295.398438 316.605469 C 297.332031 315.019531 299.230469 313.382812 301.085938 311.703125 C 302.941406 310.019531 304.753906 308.292969 306.523438 306.523438 C 308.292969 304.753906 310.019531 302.941406 311.703125 301.085938 C 313.382812 299.230469 315.019531 297.332031 316.605469 295.398438 C 318.195312 293.460938 319.734375 291.488281 321.226562 289.476562 C 322.71875 287.46875 324.160156 285.421875 325.550781 283.339844 C 326.941406 281.257812 328.28125 279.140625 329.570312 276.992188 C 330.855469 274.847656 332.089844 272.667969 333.269531 270.460938 C 334.449219 268.25 335.574219 266.015625 336.644531 263.753906 C 337.71875 261.488281 338.730469 259.199219 339.691406 256.886719 C 340.648438 254.574219 341.546875 252.238281 342.390625 249.878906 C 343.234375 247.523438 344.019531 245.144531 344.746094 242.75 C 345.476562 240.355469 346.140625 237.941406 346.75 235.511719 C 347.359375 233.082031 347.90625 230.640625 348.394531 228.183594 C 348.882812 225.730469 349.3125 223.261719 349.679688 220.785156 C 350.046875 218.308594 350.355469 215.824219 350.597656 213.332031 C 350.84375 210.839844 351.027344 208.34375 351.152344 205.84375 C 351.273438 203.34375 351.335938 200.839844 351.335938 198.335938 C 351.335938 195.832031 351.273438 193.332031 351.148438 190.828125 C 351.027344 188.328125 350.839844 185.832031 350.59375 183.339844 C 350.347656 180.851562 350.039062 178.367188 349.671875 175.890625 C 349.304688 173.414062 348.875 170.945312 348.386719 168.492188 C 347.898438 166.035156 347.347656 163.59375 346.738281 161.164062 C 346.132812 158.738281 345.460938 156.324219 344.734375 153.929688 C 344.007812 151.53125 343.222656 149.15625 342.378906 146.800781 C 341.535156 144.441406 340.632812 142.105469 339.675781 139.792969 C 338.714844 137.480469 337.703125 135.191406 336.628906 132.929688 C 335.558594 130.667969 334.433594 128.429688 333.253906 126.222656 C 332.074219 124.015625 330.839844 121.839844 329.550781 119.691406 C 328.265625 117.542969 326.925781 115.429688 325.535156 113.347656 C 324.144531 111.265625 322.703125 109.21875 321.210938 107.207031 C 319.71875 105.199219 318.179688 103.222656 316.589844 101.289062 C 315 99.355469 313.367188 97.457031 311.683594 95.601562 C 310.003906 93.75 308.277344 91.933594 306.507812 90.164062 C 304.738281 88.394531 302.925781 86.667969 301.070312 84.988281 C 299.214844 83.304688 297.320312 81.671875 295.382812 80.082031 C 293.449219 78.496094 291.476562 76.953125 289.464844 75.460938 C 287.453125 73.972656 285.40625 72.53125 283.324219 71.136719 C 281.242188 69.746094 279.128906 68.40625 276.980469 67.121094 C 274.835938 65.832031 272.65625 64.597656 270.449219 63.417969 C 268.242188 62.238281 266.003906 61.113281 263.742188 60.042969 C 261.480469 58.96875 259.191406 57.957031 256.878906 56.996094 C 254.566406 56.039062 252.230469 55.136719 249.871094 54.292969 C 247.515625 53.449219 245.140625 52.664062 242.742188 51.9375 C 240.347656 51.210938 237.9375 50.542969 235.507812 49.933594 C 233.078125 49.324219 230.636719 48.773438 228.179688 48.285156 C 225.726562 47.796875 223.257812 47.367188 220.78125 47 C 218.304688 46.632812 215.824219 46.324219 213.332031 46.078125 C 210.839844 45.832031 208.34375 45.648438 205.84375 45.523438 C 203.34375 45.398438 200.839844 45.335938 198.335938 45.335938 Z M 290.136719 271.777344 C 290.132812 272.375 290.101562 272.976562 290.042969 273.574219 C 289.984375 274.171875 289.894531 274.765625 289.773438 275.355469 C 289.65625 275.941406 289.507812 276.523438 289.332031 277.101562 C 289.15625 277.675781 288.953125 278.238281 288.722656 278.792969 C 288.492188 279.347656 288.234375 279.890625 287.953125 280.421875 C 287.667969 280.949219 287.359375 281.464844 287.027344 281.964844 C 286.691406 282.464844 286.332031 282.945312 285.953125 283.410156 C 285.570312 283.875 285.167969 284.316406 284.742188 284.742188 C 284.316406 285.167969 283.875 285.570312 283.410156 285.953125 C 282.945312 286.332031 282.464844 286.691406 281.964844 287.023438 C 281.464844 287.359375 280.949219 287.667969 280.421875 287.953125 C 279.890625 288.234375 279.347656 288.492188 278.792969 288.722656 C 278.238281 288.953125 277.675781 289.15625 277.101562 289.332031 C 276.523438 289.507812 275.941406 289.65625 275.355469 289.773438 C 274.765625 289.894531 274.171875 289.984375 273.574219 290.042969 C 272.976562 290.101562 272.375 290.132812 271.777344 290.136719 L 124.894531 290.136719 C 124.296875 290.132812 123.695312 290.101562 123.097656 290.042969 C 122.5 289.984375 121.90625 289.894531 121.316406 289.773438 C 120.730469 289.65625 120.148438 289.507812 119.574219 289.332031 C 118.996094 289.15625 118.433594 288.953125 117.878906 288.722656 C 117.324219 288.492188 116.78125 288.234375 116.25 287.953125 C 115.722656 287.667969 115.207031 287.359375 114.707031 287.023438 C 114.210938 286.691406 113.726562 286.332031 113.261719 285.953125 C 112.796875 285.570312 112.355469 285.167969 111.929688 284.742188 C 111.503906 284.316406 111.101562 283.875 110.71875 283.410156 C 110.339844 282.945312 109.980469 282.464844 109.648438 281.964844 C 109.3125 281.464844 109.003906 280.949219 108.71875 280.421875 C 108.4375 279.890625 108.179688 279.347656 107.949219 278.792969 C 107.71875 278.238281 107.515625 277.675781 107.339844 277.101562 C 107.164062 276.523438 107.015625 275.941406 106.898438 275.355469 C 106.777344 274.765625 106.691406 274.171875 106.628906 273.574219 C 106.570312 272.976562 106.539062 272.375 106.535156 271.777344 L 106.535156 124.894531 C 106.539062 124.296875 106.570312 123.695312 106.628906 123.097656 C 106.691406 122.5 106.777344 121.90625 106.898438 121.316406 C 107.015625 120.730469 107.164062 120.148438 107.339844 119.574219 C 107.515625 118.996094 107.71875 118.433594 107.949219 117.878906 C 108.179688 117.324219 108.4375 116.78125 108.71875 116.25 C 109.003906 115.722656 109.3125 115.207031 109.648438 114.707031 C 109.980469 114.210938 110.339844 113.726562 110.71875 113.261719 C 111.101562 112.796875 111.503906 112.355469 111.929688 111.929688 C 112.355469 111.503906 112.796875 111.101562 113.261719 110.71875 C 113.726562 110.339844 114.210938 109.980469 114.707031 109.648438 C 115.207031 109.3125 115.722656 109.003906 116.25 108.71875 C 116.78125 108.4375 117.324219 108.179688 117.878906 107.949219 C 118.433594 107.71875 118.996094 107.515625 119.574219 107.339844 C 120.148438 107.164062 120.730469 107.015625 121.316406 106.898438 C 121.90625 106.777344 122.5 106.691406 123.097656 106.628906 C 123.695312 106.570312 124.296875 106.539062 124.894531 106.535156 L 271.777344 106.535156 C 272.375 106.539062 272.976562 106.570312 273.574219 106.628906 C 274.171875 106.691406 274.765625 106.777344 275.355469 106.898438 C 275.941406 107.015625 276.523438 107.164062 277.101562 107.339844 C 277.675781 107.515625 278.238281 107.71875 278.792969 107.949219 C 279.347656 108.179688 279.890625 108.4375 280.421875 108.71875 C 280.949219 109.003906 281.464844 109.3125 281.964844 109.648438 C 282.464844 109.980469 282.945312 110.339844 283.410156 110.71875 C 283.875 111.101562 284.316406 111.503906 284.742188 111.929688 C 285.167969 112.355469 285.570312 112.796875 285.953125 113.261719 C 286.332031 113.726562 286.691406 114.210938 287.023438 114.707031 C 287.359375 115.207031 287.667969 115.722656 287.953125 116.25 C 288.234375 116.78125 288.492188 117.324219 288.722656 117.878906 C 288.953125 118.433594 289.15625 118.996094 289.332031 119.574219 C 289.507812 120.148438 289.65625 120.730469 289.773438 121.316406 C 289.894531 121.90625 289.980469 122.5 290.042969 123.097656 C 290.101562 123.695312 290.132812 124.296875 290.136719 124.894531 Z M 290.136719 271.777344 " fill-opacity="1" fill-rule="nonzero"/></g></svg>